<svg xmlns="http://www.w3.org/2000/svg" width="64" height="64" viewBox="0 0 64 64"><g transform="translate(-547 -36)"><rect width="64" height="64" transform="translate(547 36)" fill="none"/><path d="M36.972,0a13.307,13.307,0,0,1,6.365,1.549A9.39,9.39,0,0,1,47.85,7.905a1.471,1.471,0,0,1-.332,1.42c-.746.825-1.457,1.682-2.164,2.541a3.818,3.818,0,0,1-4.28,1.43c-.389-.109-.8-.158-1.174-.3a1.569,1.569,0,0,1-.6-.454c-.2-.232-.2-.482.166-.571.653-.156,1.306-.327,1.967-.436.321-.054.476-.163.525-.489.112-.742.232-1.485.389-2.219a1.837,1.837,0,0,0-.495-2.059A2.271,2.271,0,0,0,39.2,6.3a3.935,3.935,0,0,0-1.31,1.065,17.44,17.44,0,0,0-2.747,5.6,7.861,7.861,0,0,0,.433,5.381c.307.684.538,1.4.8,2.109a1.915,1.915,0,0,1-.144,1.66,2.227,2.227,0,0,0,.506,2.969,8.063,8.063,0,0,1,1.879,2.4,11.81,11.81,0,0,1,.85,3.99,1.907,1.907,0,0,0,.582,1.366,14.118,14.118,0,0,1,2.416,3.022.972.972,0,0,0,.613.365,51.746,51.746,0,0,1,10.541,2.875,22.632,22.632,0,0,1,2.841,1.447c.582.335.593.46.232,1.006-2.2,3.335-5.136,5.391-9.292,5.105a11.328,11.328,0,0,1-2.777-.708.963.963,0,0,0-1.078.159,43.053,43.053,0,0,1-10.958,6.614,27.853,27.853,0,0,1-12.534,2.21,13.851,13.851,0,0,1-5.884-1.53,1.037,1.037,0,0,0-.6-.073A18.588,18.588,0,0,1,.766,50.329a1.284,1.284,0,0,1-.385-2.1,9.519,9.519,0,0,1,2.833-2.344,52.132,52.132,0,0,1,7.8-3.81.793.793,0,0,0,.556-.789c.247-2.427.514-4.852.82-7.272a5.163,5.163,0,0,1,1.176-2.794,3.894,3.894,0,0,0,.822-3.935,23.477,23.477,0,0,1-.484-3.03,2.365,2.365,0,0,1,.009-.766c.331-1.714.633-3.435,1.033-5.134a20.841,20.841,0,0,1,3.19-6.59,30.121,30.121,0,0,1,7.313-7.971A18.889,18.889,0,0,1,36.972,0Z" fill="#e9e9e6" transform="translate(550.537 40.5)"/></g></svg>